HIERARCHY
ROOT Hips
{
  OFFSET 5.84602e-005 68.8428 3.50346
  CHANNELS 6 Xposition Yposition Zposition Zrotation Xrotation Yrotation
  JOINT Spine
  {
    OFFSET 0 8.597 -4.6522
    CHANNELS 3 Zrotation Xrotation Yrotation
    JOINT Spine1
    {
      OFFSET 0 7.8454 0.4098
      CHANNELS 3 Zrotation Xrotation Yrotation
      JOINT Spine2
      {
        OFFSET 0 9.7078 -2.1609
        CHANNELS 3 Zrotation Xrotation Yrotation
        JOINT Neck
        {
          OFFSET 0 21.8761 -0.4549
          CHANNELS 3 Zrotation Xrotation Yrotation
          JOINT Head
          {
            OFFSET 0 12.3537 3.3602
            CHANNELS 3 Zrotation Xrotation Yrotation
            End Site
            {
              OFFSET 0.0001 18.9506 0.5657
            }
          }
        }
        JOINT LeftShoulder
        {
          OFFSET 2.2086 21.1115 7.2329
          CHANNELS 3 Zrotation Xrotation Yrotation
          JOINT LeftArm
          {
            OFFSET 13.1193 3.0282 -4.8998
            CHANNELS 3 Zrotation Xrotation Yrotation
            JOINT LeftForeArm
            {
              OFFSET 27.4081 -0.0973053 -0.2375
              CHANNELS 3 Zrotation Xrotation Yrotation
              JOINT LeftHand
              {
                OFFSET 22.8641 0.0662994 -0.1369
                CHANNELS 3 Zrotation Xrotation Yrotation
                JOINT LeftHandIndex1
                {
                  OFFSET 8.8614 0.775009 2.4612
                  CHANNELS 3 Zrotation Xrotation Yrotation
                  JOINT LeftHandIndex2
                  {
                    OFFSET 3.3146 -0.808304 0.5841
                    CHANNELS 3 Zrotation Xrotation Yrotation
                    JOINT LeftHandIndex3
                    {
                      OFFSET 2.2628 -0.552002 0.3989
                      CHANNELS 3 Zrotation Xrotation Yrotation
                      End Site
                      {
                        OFFSET 1.6102 -0.4807 0.2612
                      }
                    }
                  }
                }
                JOINT LeftHandMiddle1
                {
                  OFFSET 8.9937 0.895004 0.2143
                  CHANNELS 3 Zrotation Xrotation Yrotation
                  JOINT LeftHandMiddle2
                  {
                    OFFSET 4.0984 0.0113983 -0.0242
                    CHANNELS 3 Zrotation Xrotation Yrotation
                    JOINT LeftHandMiddle3
                    {
                      OFFSET 2.2716 0.00689697 -0.0138001
                      CHANNELS 3 Zrotation Xrotation Yrotation
                      End Site
                      {
                        OFFSET 2.0404 -0.1441 0.0027
                      }
                    }
                  }
                }
                JOINT LeftHandRing1
                {
                  OFFSET 8.5234 0.597198 -2.0164
                  CHANNELS 3 Zrotation Xrotation Yrotation
                  JOINT LeftHandRing2
                  {
                    OFFSET 3.7188 -0.188293 -0.2328
                    CHANNELS 3 Zrotation Xrotation Yrotation
                    JOINT LeftHandRing3
                    {
                      OFFSET 2.1191 -0.106598 -0.1332
                      CHANNELS 3 Zrotation Xrotation Yrotation
                      End Site
                      {
                        OFFSET 1.8737 -0.2304 -0.0886
                      }
                    }
                  }
                }
                JOINT LeftHandPinky1
                {
                  OFFSET 7.9094 -0.601089 -3.4825
                  CHANNELS 3 Zrotation Xrotation Yrotation
                  JOINT LeftHandPinky2
                  {
                    OFFSET 2.2874 -0.477005 -0.6314
                    CHANNELS 3 Zrotation Xrotation Yrotation
                    JOINT LeftHandPinky3
                    {
                      OFFSET 1.6774 -0.349396 -0.4633
                      CHANNELS 3 Zrotation Xrotation Yrotation
                      End Site
                      {
                        OFFSET 1.4888 -0.4091 -0.3416
                      }
                    }
                  }
                }
                JOINT LeftHandThumb1
                {
                  OFFSET 1.833 -1.3875 1.3896
                  CHANNELS 3 Zrotation Xrotation Yrotation
                  JOINT LeftHandThumb2
                  {
                    OFFSET 3.4129 -1.121 2.5732
                    CHANNELS 3 Zrotation Xrotation Yrotation
                    JOINT LeftHandThumb3
                    {
                      OFFSET 2.2474 -0.804199 1.6192
                      CHANNELS 3 Zrotation Xrotation Yrotation
                      End Site
                      {
                        OFFSET 1.6527 -0.5689 1.1317
                      }
                    }
                  }
                }
              }
            }
          }
        }
        JOINT RightShoulder
        {
          OFFSET -2.2086 21.1115 7.2329
          CHANNELS 3 Zrotation Xrotation Yrotation
          JOINT RightArm
          {
            OFFSET -13.1216 3.0287 -4.9007
            CHANNELS 3 Zrotation Xrotation Yrotation
            JOINT RightForeArm
            {
              OFFSET -27.4081 -0.0973053 -0.2375
              CHANNELS 3 Zrotation Xrotation Yrotation
              JOINT RightHand
              {
                OFFSET -22.8641 0.0664063 -0.1369
                CHANNELS 3 Zrotation Xrotation Yrotation
                JOINT RightHandIndex1
                {
                  OFFSET -8.8614 0.774994 2.4612
                  CHANNELS 3 Zrotation Xrotation Yrotation
                  JOINT RightHandIndex2
                  {
                    OFFSET -3.3146 -0.808304 0.5841
                    CHANNELS 3 Zrotation Xrotation Yrotation
                    JOINT RightHandIndex3
                    {
                      OFFSET -2.2628 -0.552002 0.3989
                      CHANNELS 3 Zrotation Xrotation Yrotation
                      End Site
                      {
                        OFFSET -1.6102 -0.4807 0.2612
                      }
                    }
                  }
                }
                JOINT RightHandMiddle1
                {
                  OFFSET -8.9937 0.894989 0.2143
                  CHANNELS 3 Zrotation Xrotation Yrotation
                  JOINT RightHandMiddle2
                  {
                    OFFSET -4.0984 0.0113983 -0.0242
                    CHANNELS 3 Zrotation Xrotation Yrotation
                    JOINT RightHandMiddle3
                    {
                      OFFSET -2.2716 0.00691223 -0.0138001
                      CHANNELS 3 Zrotation Xrotation Yrotation
                      End Site
                      {
                        OFFSET -2.0404 -0.1441 0.0027
                      }
                    }
                  }
                }
                JOINT RightHandRing1
                {
                  OFFSET -8.5234 0.597198 -2.0164
                  CHANNELS 3 Zrotation Xrotation Yrotation
                  JOINT RightHandRing2
                  {
                    OFFSET -3.7188 -0.188309 -0.2328
                    CHANNELS 3 Zrotation Xrotation Yrotation
                    JOINT RightHandRing3
                    {
                      OFFSET -2.1191 -0.106598 -0.1332
                      CHANNELS 3 Zrotation Xrotation Yrotation
                      End Site
                      {
                        OFFSET -1.8737 -0.2304 -0.0886
                      }
                    }
                  }
                }
                JOINT RightHandPinky1
                {
                  OFFSET -7.9094 -0.601105 -3.4825
                  CHANNELS 3 Zrotation Xrotation Yrotation
                  JOINT RightHandPinky2
                  {
                    OFFSET -2.2874 -0.477005 -0.6314
                    CHANNELS 3 Zrotation Xrotation Yrotation
                    JOINT RightHandPinky3
                    {
                      OFFSET -1.6774 -0.349396 -0.4633
                      CHANNELS 3 Zrotation Xrotation Yrotation
                      End Site
                      {
                        OFFSET -1.4888 -0.4091 -0.3416
                      }
                    }
                  }
                }
                JOINT RightHandThumb1
                {
                  OFFSET -1.833 -1.38751 1.3896
                  CHANNELS 3 Zrotation Xrotation Yrotation
                  JOINT RightHandThumb2
                  {
                    OFFSET -3.41299 -1.12099 2.5732
                    CHANNELS 3 Zrotation Xrotation Yrotation
                    JOINT RightHandThumb3
                    {
                      OFFSET -2.24741 -0.804108 1.6192
                      CHANNELS 3 Zrotation Xrotation Yrotation
                      End Site
                      {
                        OFFSET -1.6527 -0.5689 1.1317
                      }
                    }
                  }
                }
              }
            }
          }
        }
      }
    }
  }
  JOINT RightUpLeg
  {
    OFFSET -9.1966 3.8861 -0.7581
    CHANNELS 3 Zrotation Xrotation Yrotation
    JOINT RightLeg
    {
      OFFSET -0.7359 -41.0265 0
      CHANNELS 3 Zrotation Xrotation Yrotation
      JOINT RightFoot
      {
        OFFSET 0 -40.2855 0
        CHANNELS 3 Zrotation Xrotation Yrotation
        JOINT RightToeBase
        {
          OFFSET 0 -5.6122 11.7359
          CHANNELS 3 Zrotation Xrotation Yrotation
          End Site
          {
            OFFSET 0 0 7.8731
          }
        }
      }
    }
  }
  JOINT LeftUpLeg
  {
    OFFSET 9.1965 3.8864 -0.7581
    CHANNELS 3 Zrotation Xrotation Yrotation
    JOINT LeftLeg
    {
      OFFSET 0.7359 -41.0268 0
      CHANNELS 3 Zrotation Xrotation Yrotation
      JOINT LeftFoot
      {
        OFFSET 0 -40.2855 0
        CHANNELS 3 Zrotation Xrotation Yrotation
        JOINT LeftToeBase
        {
          OFFSET 0 -5.6122 11.7359
          CHANNELS 3 Zrotation Xrotation Yrotation
          End Site
          {
            OFFSET 0 0 7.8731
          }
        }
      }
    }
  }
}
MOTION
Frames:	4
Frame Time:	0.0333333
39.763 1.6364 10.4585 -0 -87.2036 -0 -0.0271934 5.60243 -0.102126 -0.0446189 11.2049 -0.203032 -0.0446189 11.2049 -0.203032 6.09227e-006 -4.70694 -7.48413e-007 -4.55929e-008 -25.5406 -4.99012e-008 10.8263 12.4232 -24.7467 -56.0718 10.2377 -4.81228 -6.57815 12.7876 -27.2983 -14.2299 34.6243 -3.50348 -3.18055e-015 7.95139e-016 -3.97569e-016 -3.18055e-015 7.95139e-016 -3.97569e-016 -1.37935e-033 3.97569e-016 1.98785e-016 -3.18055e-015 7.95139e-016 -3.97569e-016 -0.0146126 -8.9478e-005 2.96929e-006 6.36111e-015 -1.68967e-015 -3.97569e-016 -3.18055e-015 7.95139e-016 -3.97569e-016 -0.018747 -0.00117487 5.29249e-005 6.36111e-015 -5.96354e-016 -0 -3.18055e-015 7.95139e-016 -3.97569e-016 -0.0122591 -0.00324496 0.000669117 -1.19727e-030 1.23246e-014 5.56597e-015 -3.18055e-015 7.95139e-016 -3.97569e-016 -3.18055e-015 7.95139e-016 -3.97569e-016 -1.37935e-033 3.97569e-016 1.98785e-016 -10.4199 12.3719 24.8049 56.3001 10.2866 4.94532 6.40469 12.7187 26.8278 14.0839 34.7003 3.83818 3.87312e-007 -1.48099e-007 -8.01818e-008 3.44836e-033 -4.96962e-016 3.97569e-016 -3.18055e-015 -5.96354e-016 1.98785e-016 3.87312e-007 -1.48099e-007 -8.01818e-008 0.0149921 -9.06471e-005 7.77268e-006 -3.18055e-015 -1.19271e-015 -1.98785e-016 3.87312e-007 -1.48099e-007 -8.01818e-008 0.0189926 -0.00119058 -6.1459e-005 -6.36111e-015 0 -0 3.87312e-007 -1.48099e-007 -8.01818e-008 0.0122733 -0.00325198 -0.000683336 3.18055e-015 2.98177e-016 -0 3.87312e-007 -1.48099e-007 -8.01818e-008 3.44836e-033 -4.96962e-016 3.97569e-016 -3.18055e-015 -5.96354e-016 1.98785e-016 -130.257 -22.218 -164.527 -166.039 42.1217 136.558 -2.68965 52.0101 -7.74401 2.43498e-007 1.84528e-006 -2.14697e-007 139.017 -25.209 165.533 172.881 49.8123 -179.726 7.36585 52.3917 3.91766 -1.12357e-006 -2.96623e-007 1.48726e-006 
39.7645 1.50862 10.3755 -0 -86.4051 -0 -0.026395 5.40304 -0.102563 -0.0433154 10.8061 -0.203983 -0.0433154 10.8061 -0.203983 -8.32648e-007 -5.08918 4.019e-007 -4.20563e-008 -26.1194 -4.81567e-008 9.65645 13.1338 -24.7535 -55.2928 10.1354 -4.87314 -6.25882 12.624 -26.327 -13.6509 34.8355 -4.32687 -3.95542e-007 -2.35209e-007 5.41833e-008 -6.36111e-015 1.98785e-016 -0 1.03451e-033 -9.93923e-017 5.96354e-016 -3.95542e-007 -2.35209e-007 5.41833e-008 -0.0146103 -8.85544e-005 4.44963e-006 6.36111e-015 -9.93923e-017 -0 -3.95542e-007 -2.35209e-007 5.41833e-008 -0.0187535 -0.00117538 5.18698e-005 -1.72418e-033 4.96962e-016 1.98785e-016 -3.95542e-007 -2.35209e-007 5.41833e-008 -0.0122614 -0.00324808 0.000676362 -9.54166e-015 1.98785e-016 1.98785e-016 -3.95542e-007 -2.35209e-007 5.41833e-008 -6.36111e-015 1.98785e-016 -0 1.03451e-033 -9.93923e-017 5.96354e-016 -9.21627 13.1033 24.8053 55.4702 10.1776 4.99576 6.07962 12.5573 25.8733 13.5157 34.9077 4.66197 9.54166e-015 -3.97569e-016 -0 6.36111e-015 -7.95139e-016 -3.97569e-016 9.54166e-015 -4.96962e-016 -1.98785e-016 9.54166e-015 -3.97569e-016 -0 0.0149971 -8.77617e-005 1.05981e-005 -3.18055e-015 3.97569e-016 1.98785e-016 9.54166e-015 -3.97569e-016 -0 0.018987 -0.00119076 -6.07798e-005 6.89673e-034 -1.98785e-016 1.98785e-016 9.54166e-015 -3.97569e-016 -0 0.0122723 -0.00324571 -0.000668165 -3.95374e-007 1.43391e-007 7.96791e-008 9.54166e-015 -3.97569e-016 -0 6.36111e-015 -7.95139e-016 -3.97569e-016 9.54166e-015 -4.96962e-016 -1.98785e-016 -130.368 -22.3057 -164.267 -165.95 43.0512 137.934 -2.91175 51.9669 -7.52023 -4.37448e-008 -1.39558e-006 8.96878e-007 138.63 -24.5316 165.823 172.813 50.0536 179.811 7.43971 52.4248 3.85466 2.23509e-006 -2.21516e-007 7.49322e-007 
39.7658 1.38015 10.2912 -0 -85.606 -0 -0.0255974 5.20339 -0.102992 -0.0420189 10.4068 -0.204914 -0.0420189 10.4068 -0.204914 -1.86878e-006 -5.47178 -4.95958e-008 -4.29506e-008 -26.6974 -7.8083e-008 8.48045 13.846 -24.7453 -54.5137 10.0323 -4.9326 -5.93643 12.4655 -25.3539 -13.0663 35.0399 -5.15546 6.36111e-015 -1.25234e-014 3.97569e-016 6.36111e-015 -1.2921e-014 3.97569e-016 -3.18055e-015 -1.31198e-014 7.95139e-016 6.36111e-015 -1.25234e-014 3.97569e-016 -0.0146111 -8.6612e-005 -9.15355e-006 3.18055e-015 2.98177e-016 3.97569e-016 6.36111e-015 -1.25234e-014 3.97569e-016 -0.0187322 -0.00117526 6.54256e-005 6.36111e-015 2.98177e-016 1.98785e-016 6.36111e-015 -1.25234e-014 3.97569e-016 -0.0122537 -0.00324379 0.000675075 6.36111e-015 -5.96354e-016 -3.97569e-016 6.36111e-015 -1.25234e-014 3.97569e-016 6.36111e-015 -1.2921e-014 3.97569e-016 -3.18055e-015 -1.31198e-014 7.95139e-016 -8.006 13.8364 24.7899 54.64 10.0679 5.0446 5.7516 12.401 24.917 12.9422 35.1085 5.49083 -6.36111e-015 -1.36167e-014 -1.98785e-016 -3.18055e-015 -1.3418e-014 -1.98785e-016 4.68978e-032 -1.35174e-014 1.98785e-016 -6.36111e-015 -1.36167e-014 -1.98785e-016 0.0149893 -8.83215e-005 9.76121e-006 -2.06902e-033 -5.96354e-016 -1.98785e-016 -6.36111e-015 -1.36167e-014 -1.98785e-016 0.0189948 -0.00119027 -5.928e-005 -6.36111e-015 9.93923e-017 -0 -6.36111e-015 -1.36167e-014 -1.98785e-016 0.0122852 -0.00325275 -0.000673958 -6.36111e-015 -3.97569e-016 -7.95139e-016 -6.36111e-015 -1.36167e-014 -1.98785e-016 -3.18055e-015 -1.3418e-014 -1.98785e-016 4.68978e-032 -1.35174e-014 1.98785e-016 -130.481 -22.3929 -164.02 -165.885 43.9887 139.321 -3.13248 51.9266 -7.301 8.39909e-007 4.76879e-007 3.86025e-006 138.24 -23.856 166.116 172.746 50.296 179.346 7.51271 52.4584 3.79201 -1.6532e-006 -4.82414e-010 1.74394e-007 
39.7669 1.25103 10.2056 -0 -84.8063 -0 -0.0248007 5.00352 -0.103412 -0.0407299 10.0071 -0.205826 -0.0407299 10.0071 -0.205826 3.50533e-007 -5.85448 2.85918e-007 3.55835e-008 -27.2746 5.36769e-008 7.29824 14.5593 -24.7219 -53.7344 9.92835 -4.99067 -5.61109 12.3122 -24.3792 -12.4765 35.2375 -5.98906 -3.18055e-015 2.98177e-016 -3.97569e-016 -3.18055e-015 -4.96962e-016 -1.98785e-016 -6.36111e-015 9.93923e-017 -3.97569e-016 -3.18055e-015 2.98177e-016 -3.97569e-016 -0.0146102 -8.91052e-005 1.03925e-008 3.18055e-015 7.95139e-016 -1.98785e-016 -3.18055e-015 2.98177e-016 -3.97569e-016 -0.0187573 -0.00117875 5.6536e-005 0 4.96962e-016 -0 -3.18055e-015 2.98177e-016 -3.97569e-016 -0.0122612 -0.00324504 0.00068145 6.36111e-015 5.96354e-016 -5.96354e-016 -3.18055e-015 2.98177e-016 -3.97569e-016 -3.18055e-015 -4.96962e-016 -1.98785e-016 -6.36111e-015 9.93923e-017 -3.97569e-016 -6.789 14.5705 24.7584 53.8096 9.95736 5.09186 5.42071 12.2499 23.9592 12.3635 35.3026 6.32457 -6.36111e-015 6.95746e-016 -0 -6.36111e-015 4.96962e-016 3.97569e-016 -6.36111e-015 7.95139e-016 1.98785e-016 -6.36111e-015 6.95746e-016 -0 0.0149959 -9.11416e-005 4.08643e-007 -6.89673e-034 -9.93923e-017 -3.97569e-016 -6.36111e-015 6.95746e-016 -0 0.0189782 -0.00119268 -7.1309e-005 0 0 -1.98785e-016 -6.36111e-015 6.95746e-016 -0 0.0122833 -0.00325187 -0.000676141 3.18055e-015 -9.93923e-017 5.96354e-016 -6.36111e-015 6.95746e-016 -0 -6.36111e-015 4.96962e-016 3.97569e-016 -6.36111e-015 7.95139e-016 1.98785e-016 -130.594 -22.4798 -163.784 -165.844 44.9332 140.721 -3.35202 51.8893 -7.08596 -1.49582e-005 6.84652e-006 -1.44937e-006 137.847 -23.1825 166.414 172.682 50.5396 178.88 7.58488 52.4924 3.72977 5.96283e-006 -2.937e-007 7.33908e-007 
